<?xml version="1.0" encoding="UTF-8"?>
<svg width="164px" height="26px" viewBox="0 0 164 26" version="1.1" xmlns="http://www.w3.org/2000/svg" xmlns:xlink="http://www.w3.org/1999/xlink">
    <!-- Generator: sketchtool 42 (36781) - http://www.bohemiancoding.com/sketch -->
    <title>CB7D8CA9-D581-41F9-8274-CA13CC9D9ECD</title>
    <desc>Created with sketchtool.</desc>
    <defs></defs>
    <g id="Product-page" stroke="none" stroke-width="1" fill="none" fill-rule="evenodd">
        <g id="ATS-Product-Page" transform="translate(-137.000000, -2237.000000)">
            <g id="Footer" transform="translate(0.000000, 2176.000000)">
                <g id="Logo" transform="translate(137.000000, 61.000000)">
                    <g id="Layer_1">
                        <g id="Group">
                            <path d="M36.5244275,13.4642857 C36.8374046,12.7833333 37.0877863,12.1333333 37.2755725,11.452381 C36.148855,10.5857143 34.3022901,9.40952381 31.5167939,8.35714286 C31.610687,9.16190476 31.5480916,10.0285714 31.3290076,10.8952381 C33.5198473,11.5761905 35.1473282,12.4738095 36.5244275,13.4642857 Z" id="Shape" fill="#003F6E"></path>
                            <path d="M31.2038168,7.02619048 C33.9580153,7.55238095 35.9610687,8.48095238 37.6198473,9.53333333 C37.7137405,8.32619048 37.5259542,7.15 37.119084,6.03571429 C36.4931298,4.45714286 31.7984733,3.71428571 28.2618321,3.9 C29.7641221,4.76666667 30.7030534,5.81904762 31.2038168,7.02619048 Z" id="Shape" fill="#003F6E"></path>
                            <path d="M30.9847328,11.9785714 C29.3259542,16.0642857 24.6,20.2428571 19.8114504,22.2238095 C14.7412214,24.3285714 9.67099237,24.7928571 6.00916031,23.7714286 C10.3282443,26.247619 17.151145,26.4642857 23.9427481,23.8952381 C29.2633588,21.8833333 33.4259542,18.5714286 35.710687,14.95 C34.5839695,14.052381 33.0503817,13 30.9847328,11.9785714 Z" id="Shape" fill="#003F6E"></path>
                            <path d="M2.40992366,10.5547619 C1.53358779,11.8238095 0.876335878,13.1547619 0.500763359,14.4857143 C3.84961832,15.2904762 6.25954198,15.2904762 7.63664122,15.1357143 C7.60534351,14.4547619 7.66793893,13.7119048 7.85572519,12.9690476 C6.16564885,12.4738095 4.35038168,11.8238095 2.40992366,10.5547619 Z" id="Shape" fill="#009BCC"></path>
                            <path d="M7.94961832,16.9619048 C5.72748092,16.9928571 3.22366412,16.8690476 0.250381679,15.6928571 C0.0312977099,17.147619 0.15648855,18.602381 0.688549618,19.9642857 C3.97480916,21.4190476 7.41755725,22.0690476 10.6099237,21.6357143 C10.2969466,21.3880952 8.60687023,19.5309524 7.94961832,16.9619048 Z" id="Shape" fill="#009BCC"></path>
                            <path d="M13.8335878,2.1047619 C9.38931298,3.80714286 5.75877863,6.37619048 3.34885496,9.28571429 C5.25801527,10.4619048 7.04198473,11.2047619 8.29389313,11.6380952 C9.42061069,9.00714286 12.2061069,6.25238095 17.9648855,3.77619048 C23.0038168,1.60952381 28.1053435,1.20714286 31.7671756,2.22857143 C29.5450382,0.95952381 26.6343511,0.278571429 23.4419847,0.278571429 L23.410687,0.278571429 C20.4061069,0.247619048 17.1198473,0.835714286 13.8335878,2.1047619 Z" id="Shape" fill="#009BCC"></path>
                            <path d="M27.3854962,8.10952381 C21.3450382,6.6547619 17.9961832,11.4833333 12.2374046,12.752381 C11.8931298,13.402381 11.6740458,14.0833333 11.5801527,14.7333333 C15.9618321,14.3309524 15.7427481,12.8761905 20.8442748,11.0190476 C24.380916,9.71904762 26.7908397,9.84285714 28.0114504,10.1214286 C28.0114504,9.53333333 27.8862595,9.00714286 27.6045802,8.51190476 C27.5419847,8.32619048 27.4793893,8.23333333 27.3854962,8.10952381 Z" id="Shape" fill="#003F6E"></path>
                            <path d="M19.0603053,8.48095238 C21.9396947,7.24285714 24.0053435,6.74761905 25.9770992,6.9952381 C23.8801527,6.0047619 20.4687023,6.31428571 17.2450382,8.04761905 C15.4923664,8.97619048 14.0526718,10.1833333 13.0824427,11.452381 C15.5862595,10.8333333 17.1198473,9.31666667 19.0603053,8.48095238 Z" id="Shape" fill="#003F6E"></path>
                            <path d="M11.6740458,16.1880952 C11.7366412,16.4047619 11.8305344,16.652381 11.9557252,16.8380952 C13.3641221,19.4071429 17.9961832,19.5928571 22.3465649,17.2714286 C25.351145,15.6619048 27.4167939,13.247619 27.9175573,11.05 C21.4389313,9.31666667 18.7160305,16.1261905 11.6740458,16.1880952 Z" id="Shape" fill="#003F6E"></path>
                            <polygon id="Shape" fill="#009BCC" points="110.418321 8.9452381 106.787786 8.9452381 106.787786 19.1285714 104.346565 19.1285714 104.346565 8.9452381 100.684733 8.9452381 100.684733 6.77857143 110.418321 6.77857143"></polygon>
                            <path d="M113.172519,11.8857143 C112.577863,11.8857143 112.108397,12.0714286 111.826718,12.4119048 C111.545038,12.7833333 111.357252,13.247619 111.294656,13.8357143 L114.580916,13.8357143 C114.643511,13.2166667 114.518321,12.7214286 114.299237,12.3809524 C114.080153,12.0714286 113.673282,11.8857143 113.172519,11.8857143 L113.172519,11.8857143 Z M116.490076,18.3547619 C116.145802,18.6333333 115.645038,18.8809524 115.050382,19.0666667 C114.424427,19.252381 113.798473,19.3452381 113.109924,19.3452381 C111.670229,19.3452381 110.637405,18.9428571 109.948855,18.1071429 C109.291603,17.2714286 108.947328,16.1571429 108.947328,14.702381 C108.947328,13.1547619 109.322901,11.9785714 110.074046,11.2047619 C110.825191,10.4309524 111.858015,10.0285714 113.235115,10.0285714 C113.673282,10.0285714 114.11145,10.0904762 114.549618,10.2142857 C114.987786,10.3380952 115.363359,10.5238095 115.676336,10.802381 C116.020611,11.0809524 116.270992,11.4214286 116.490076,11.8857143 C116.677863,12.35 116.803053,12.9071429 116.803053,13.5880952 C116.803053,13.8357143 116.803053,14.1142857 116.771756,14.3928571 C116.740458,14.6714286 116.70916,14.9809524 116.646565,15.2595238 L111.325954,15.2595238 C111.357252,16.002381 111.545038,16.5595238 111.889313,16.9309524 C112.233588,17.302381 112.796947,17.4880952 113.579389,17.4880952 C114.080153,17.4880952 114.487023,17.4261905 114.893893,17.2714286 C115.269466,17.1166667 115.582443,16.9619048 115.770229,16.8071429 L116.490076,18.3547619 Z" id="Shape" fill="#009BCC"></path>
                            <polygon id="Shape" fill="#009BCC" points="120.214504 14.6095238 117.554198 10.3071429 120.308397 10.3071429 121.466412 12.1952381 121.967176 13.4333333 122.499237 12.1952381 123.719847 10.3071429 126.223664 10.3071429 123.532061 14.547619 126.41145 19.1285714 123.719847 19.1285714 122.342748 16.9928571 121.810687 15.6928571 121.247328 16.9928571 119.870229 19.1285714 117.335115 19.1285714"></polygon>
                            <path d="M50.4206107,14.4547619 L53.080916,14.4547619 L52.1419847,11.7 L51.7664122,9.75 L51.6725191,9.75 L51.2969466,11.7 L50.4206107,14.4547619 L50.4206107,14.4547619 Z M53.6129771,16.4047619 L49.7946565,16.4047619 L48.8557252,19.1285714 L46.4145038,19.1285714 L50.8900763,6.71666667 L52.7053435,6.71666667 L57.180916,19.1285714 L54.6145038,19.1285714 L53.6129771,16.4047619 Z" id="Shape" fill="#003F6E"></path>
                            <path d="M62.5015267,12.35 L60.748855,12.35 C60.6862595,13.1857143 60.5923664,14.0214286 60.4984733,14.8261905 C60.4045802,15.6619048 60.2480916,16.3738095 60.0290076,17.0238095 C59.8099237,17.6738095 59.5282443,18.2 59.1839695,18.602381 C58.8396947,19.0047619 58.370229,19.2214286 57.8068702,19.2214286 C57.1183206,19.2214286 56.6175573,19.1285714 56.3358779,18.9738095 L56.6175573,17.0857143 C56.8053435,17.147619 56.9931298,17.1785714 57.1496183,17.1785714 C57.4,17.1785714 57.5877863,17.0857143 57.7755725,16.8690476 C57.9633588,16.6833333 58.1198473,16.3119048 58.2450382,15.7857143 C58.370229,15.2595238 58.4641221,14.547619 58.5580153,13.6809524 C58.6206107,12.7833333 58.6832061,11.6690476 58.7145038,10.2761905 L64.8175573,10.2761905 L64.8175573,19.097619 L62.5015267,19.097619 L62.5015267,12.35 Z" id="Shape" fill="#003F6E"></path>
                            <path d="M69.1366412,17.2095238 C69.480916,17.2714286 69.8251908,17.302381 70.1381679,17.302381 C70.7015267,17.302381 71.1083969,17.2095238 71.3900763,17.0238095 C71.640458,16.8380952 71.7656489,16.5285714 71.7656489,16.1261905 C71.7656489,15.352381 71.2335878,14.9809524 70.2007634,14.9809524 C69.7938931,14.9809524 69.4496183,15.0119048 69.1366412,15.1047619 L69.1366412,17.2095238 L69.1366412,17.2095238 Z M69.1366412,13.4333333 C69.4183206,13.3714286 69.7,13.3404762 70.0129771,13.3404762 C70.2946565,13.3095238 70.5763359,13.3095238 70.7954198,13.3095238 C71.421374,13.3095238 71.9221374,13.3714286 72.3603053,13.5261905 C72.7984733,13.65 73.1427481,13.8666667 73.3931298,14.1142857 C73.6748092,14.3619048 73.8625954,14.6404762 73.9564885,14.9809524 C74.0816794,15.3214286 74.1442748,15.6619048 74.1442748,16.0642857 C74.1442748,17.147619 73.8312977,17.9214286 73.1740458,18.447619 C72.5480916,18.9738095 71.4526718,19.252381 69.919084,19.252381 C69.2305344,19.252381 68.6671756,19.252381 68.1664122,19.2214286 C67.6656489,19.1904762 67.2274809,19.1595238 66.789313,19.1285714 L66.789313,10.3071429 L69.1053435,10.3071429 L69.1053435,13.4333333 L69.1366412,13.4333333 Z" id="Shape" fill="#003F6E"></path>
                            <path d="M79.9656489,14.5785714 L79.9656489,12.1333333 C79.840458,12.0714286 79.6839695,12.0404762 79.5274809,12.0095238 C79.3709924,11.9785714 79.2145038,11.9785714 79.089313,11.9785714 C78.5572519,11.9785714 78.1503817,12.102381 77.8374046,12.3190476 C77.5557252,12.5357143 77.3992366,12.8761905 77.3992366,13.3095238 C77.3992366,13.7428571 77.5557252,14.0833333 77.9,14.3 C78.2129771,14.5166667 78.7137405,14.6095238 79.3396947,14.6095238 L79.9656489,14.5785714 L79.9656489,14.5785714 Z M79.9656489,15.7857143 L78.9015267,16.002381 L77.1801527,19.1285714 L74.4259542,19.1285714 L76.1473282,16.3738095 L77.0236641,15.7238095 C76.4290076,15.6309524 75.959542,15.352381 75.5839695,14.9190476 C75.2083969,14.4547619 75.0206107,13.897619 75.0206107,13.2166667 C75.0206107,12.1333333 75.3648855,11.3595238 76.0847328,10.8642857 C76.8045802,10.3690476 77.9,10.1214286 79.4022901,10.1214286 C79.9656489,10.1214286 80.4977099,10.152381 80.9984733,10.2142857 C81.4992366,10.2761905 81.9061069,10.3380952 82.2816794,10.4 L82.2816794,19.1904762 L79.9656489,19.1904762 L79.9656489,15.7857143 L79.9656489,15.7857143 Z" id="Shape" fill="#003F6E"></path>
                            <polygon id="Shape" fill="#003F6E" points="89.448855 15.6619048 86.5381679 15.6619048 86.5381679 19.1285714 84.2221374 19.1285714 84.2221374 10.3071429 86.5381679 10.3071429 86.5381679 13.6190476 89.448855 13.6190476 89.448855 10.3071429 91.7648855 10.3071429 91.7648855 19.1285714 89.448855 19.1285714"></polygon>
                            <path d="M100.090076,18.5714286 C99.7458015,18.8190476 99.3076336,19.0357143 98.8068702,19.1595238 C98.3061069,19.2833333 97.7740458,19.3761905 97.2419847,19.3761905 C96.5221374,19.3761905 95.9274809,19.252381 95.4267176,19.0357143 C94.9259542,18.8190476 94.519084,18.5095238 94.2374046,18.1071429 C93.9244275,17.7047619 93.7053435,17.2095238 93.5801527,16.6214286 C93.4549618,16.0333333 93.3610687,15.4142857 93.3610687,14.7333333 C93.3610687,13.247619 93.7053435,12.102381 94.3625954,11.297619 C95.051145,10.4928571 96.021374,10.0904762 97.3358779,10.0904762 C97.9931298,10.0904762 98.5251908,10.152381 98.9007634,10.2452381 C99.3076336,10.3380952 99.6519084,10.4928571 99.9648855,10.647619 L99.4015267,12.5047619 C99.1198473,12.3809524 98.8694656,12.2880952 98.5877863,12.1952381 C98.3061069,12.1333333 98.0244275,12.102381 97.6801527,12.102381 C97.0541985,12.102381 96.5534351,12.3190476 96.2091603,12.7214286 C95.8648855,13.1547619 95.7083969,13.8047619 95.7083969,14.7333333 C95.7083969,15.1047619 95.7396947,15.4452381 95.8335878,15.7857143 C95.9274809,16.0952381 96.0526718,16.3738095 96.2091603,16.6214286 C96.3656489,16.8690476 96.5847328,17.0547619 96.8664122,17.1785714 C97.1480916,17.302381 97.429771,17.3952381 97.8053435,17.3952381 C98.2122137,17.3952381 98.5251908,17.3333333 98.8068702,17.2404762 C99.0885496,17.147619 99.3076336,17.0238095 99.5267176,16.8690476 L100.090076,18.5714286 Z" id="Shape" fill="#003F6E"></path>
                            <path d="M136.051145,18.602381 C135.675573,18.8809524 135.174809,19.0666667 134.61145,19.1904762 C134.016794,19.3142857 133.422137,19.3761905 132.796183,19.3761905 C132.045038,19.3761905 131.325191,19.252381 130.667939,19.0357143 C130.010687,18.8190476 129.416031,18.447619 128.883969,17.9214286 C128.383206,17.3952381 127.976336,16.7452381 127.663359,15.9404762 C127.350382,15.1357143 127.193893,14.1452381 127.193893,12.9690476 C127.193893,11.7619048 127.350382,10.7404762 127.694656,9.93571429 C128.038931,9.13095238 128.477099,8.45 129.00916,7.9547619 C129.541221,7.45952381 130.167176,7.08809524 130.824427,6.87142857 C131.481679,6.6547619 132.138931,6.53095238 132.827481,6.53095238 C133.547328,6.53095238 134.141985,6.59285714 134.642748,6.68571429 C135.143511,6.77857143 135.550382,6.90238095 135.863359,7.02619048 L135.393893,9.06904762 C135.112214,8.9452381 134.799237,8.85238095 134.423664,8.79047619 C134.048092,8.72857143 133.609924,8.69761905 133.046565,8.69761905 C132.076336,8.69761905 131.262595,9.03809524 130.667939,9.75 C130.073282,10.4309524 129.760305,11.5142857 129.760305,12.9690476 C129.760305,13.6190476 129.822901,14.1761905 129.979389,14.702381 C130.135878,15.2285714 130.323664,15.6619048 130.636641,16.0333333 C130.918321,16.4047619 131.293893,16.6833333 131.732061,16.9 C132.170229,17.1166667 132.670992,17.2095238 133.234351,17.2095238 C133.766412,17.2095238 134.235878,17.147619 134.580153,17.0547619 C134.955725,16.9619048 135.268702,16.8071429 135.550382,16.652381 L136.051145,18.602381 Z" id="Shape" fill="#003F6E"></path>
                            <polygon id="Shape" fill="#003F6E" points="142.748855 15.6619048 139.838168 15.6619048 139.838168 19.1285714 137.522137 19.1285714 137.522137 10.3071429 139.838168 10.3071429 139.838168 13.6190476 142.748855 13.6190476 142.748855 10.3071429 145.064885 10.3071429 145.064885 19.1285714 142.748855 19.1285714"></polygon>
                            <path d="M149.978626,17.3642857 C150.448092,17.3642857 150.823664,17.2714286 151.074046,17.0547619 C151.355725,16.8380952 151.543511,16.6214286 151.668702,16.4047619 L151.668702,15.2595238 C151.29313,15.2285714 150.948855,15.2285714 150.60458,15.2285714 C150.260305,15.2595238 149.978626,15.2904762 149.696947,15.3833333 C149.446565,15.4761905 149.227481,15.5690476 149.070992,15.7238095 C148.914504,15.8785714 148.851908,16.0642857 148.851908,16.3119048 C148.851908,16.652381 148.945802,16.9 149.133588,17.0857143 C149.352672,17.2714286 149.634351,17.3642857 149.978626,17.3642857 L149.978626,17.3642857 Z M147.036641,10.8333333 C147.506107,10.6166667 148.069466,10.4619048 148.726718,10.3380952 C149.383969,10.2142857 150.072519,10.152381 150.761069,10.152381 C151.387023,10.152381 151.887786,10.2142857 152.325954,10.3690476 C152.732824,10.5238095 153.077099,10.7095238 153.327481,10.9880952 C153.577863,11.2666667 153.734351,11.5761905 153.859542,11.947619 C153.953435,12.3190476 154.016031,12.752381 154.016031,13.2166667 C154.016031,13.7428571 153.984733,14.2380952 153.953435,14.7642857 C153.922137,15.2904762 153.89084,15.8166667 153.89084,16.3119048 C153.89084,16.8071429 153.89084,17.302381 153.922137,17.797619 C153.953435,18.2619048 154.047328,18.7261905 154.203817,19.1595238 L152.325954,19.1595238 L151.950382,17.952381 L151.856489,17.952381 C151.606107,18.3238095 151.29313,18.6333333 150.854962,18.8809524 C150.448092,19.1595238 149.884733,19.2833333 149.227481,19.2833333 C148.820611,19.2833333 148.445038,19.2214286 148.100763,19.097619 C147.756489,18.9738095 147.474809,18.7880952 147.255725,18.5714286 C147.005344,18.3547619 146.817557,18.0761905 146.692366,17.7666667 C146.567176,17.4571429 146.50458,17.1166667 146.50458,16.7142857 C146.50458,16.1880952 146.629771,15.7238095 146.880153,15.352381 C147.130534,14.9809524 147.474809,14.6714286 147.944275,14.4547619 C148.41374,14.2380952 148.945802,14.052381 149.571756,13.9904762 C150.19771,13.897619 150.917557,13.8666667 151.7,13.897619 C151.793893,13.247619 151.731298,12.752381 151.543511,12.4738095 C151.355725,12.1952381 150.980153,12.0404762 150.354198,12.0404762 C149.884733,12.0404762 149.415267,12.102381 148.883206,12.1952381 C148.382443,12.2880952 147.944275,12.4119048 147.6,12.5666667 L147.036641,10.8333333 Z" id="Shape" fill="#003F6E"></path>
                            <path d="M157.896947,14.8261905 C157.896947,15.5690476 158.053435,16.1880952 158.335115,16.6833333 C158.616794,17.1785714 159.08626,17.4261905 159.712214,17.4261905 C160.338168,17.4261905 160.807634,17.2095238 161.089313,16.7452381 C161.370992,16.3119048 161.496183,15.6619048 161.496183,14.7952381 C161.496183,14.0214286 161.370992,13.4333333 161.089313,13.0309524 C160.838931,12.6285714 160.400763,12.4119048 159.774809,12.4119048 C159.117557,12.4119048 158.648092,12.6285714 158.335115,13.0309524 C158.053435,13.4952381 157.896947,14.0833333 157.896947,14.8261905 L157.896947,14.8261905 Z M157.427481,11.9785714 C157.771756,11.452381 158.178626,11.0809524 158.648092,10.8642857 C159.117557,10.647619 159.680916,10.5238095 160.338168,10.5238095 C161.433588,10.5238095 162.278626,10.8642857 162.90458,11.5142857 C163.530534,12.1642857 163.843511,13.1857143 163.843511,14.547619 C163.843511,16.1261905 163.467939,17.3333333 162.748092,18.1690476 C162.028244,19.0047619 160.99542,19.4071429 159.680916,19.4071429 C158.303817,19.4071429 157.239695,18.9428571 156.519847,18.0452381 C155.8,17.147619 155.424427,15.7238095 155.424427,13.8047619 C155.424427,12.7833333 155.487023,11.9166667 155.612214,11.2047619 C155.737405,10.4928571 155.893893,9.87380952 156.112977,9.37857143 C156.332061,8.88333333 156.582443,8.48095238 156.89542,8.20238095 C157.208397,7.92380952 157.552672,7.67619048 157.896947,7.52142857 C158.272519,7.33571429 158.679389,7.24285714 159.08626,7.15 C159.524427,7.08809524 159.962595,7.02619048 160.432061,6.96428571 C161.058015,6.90238095 161.590076,6.84047619 162.028244,6.74761905 C162.466412,6.6547619 162.779389,6.5 162.998473,6.31428571 L163.092366,8.32619048 C162.841985,8.54285714 162.529008,8.69761905 162.09084,8.75952381 C161.652672,8.85238095 161.058015,8.91428571 160.30687,8.97619048 C159.868702,9.00714286 159.461832,9.03809524 159.117557,9.13095238 C158.773282,9.22380952 158.491603,9.34761905 158.241221,9.56428571 C157.99084,9.78095238 157.803053,10.0595238 157.646565,10.4619048 C157.490076,10.8333333 157.396183,11.3285714 157.30229,11.947619 L157.427481,11.947619 L157.427481,11.9785714 Z" id="Shape" fill="#003F6E"></path>
                        </g>
                    </g>
                </g>
            </g>
        </g>
    </g>
</svg>